# xmcd
#
# Track frame offsets: 
#        150
#        16830
#        32093
#        50803
#        67052
#        82544
#        104486
#        117883
#        136196
#        155004
#        169475
#        180274
#        207040
#        222234
#
# Disc length: 3201 seconds
#
# Revision: 0
# Processed by: cddbd v1.5.2PL0 Copyright (c) Steve Scherf et al.
# Submitted via: ExactAudioCopyFreeDBPlugin 1.0
#
DISCID=bb0c7f0e
DTITLE=Various Artist - Country Mountain Barn Dance
DYEAR=2010
DGENRE=Bluegrass
TTITLE0=Sail Away Ladies
TTITLE1=Cumberland Gap
TTITLE2=Old Dangerfield
TTITLE3=I Will Never Marry
TTITLE4=Fly Around My Pretty Little Miss_Shady Grove
TTITLE5=Chicken Reel_Turkey In The Straw_Flopeared Mule
TTITLE6=Grandfather Polka (Clarinet Polka)
TTITLE7=Blackberry Blossom
TTITLE8=Bonaparte's Retreat
TTITLE9=Guilderoy_Red Haired Boy
TTITLE10=Jack of Diamonds
TTITLE11=Stony Point_Cherokee Shuffle_Devils Dream
TTITLE12=Leather Britches
TTITLE13=Canadian Waltz (Ookpik)
EXTD=
EXTT0=
EXTT1=
EXTT2=
EXTT3=
EXTT4=
EXTT5=
EXTT6=
EXTT7=
EXTT8=
EXTT9=
EXTT10=
EXTT11=
EXTT12=
EXTT13=
PLAYORDER=
